<?xml version="1.0" encoding="UTF-8"?>
<svg version="1.1" xmlns="http://www.w3.org/2000/svg" width="1024" height="1024">
<path d="M0 0 C1.41917368 0.00186996 2.83834802 0.00329113 4.25752258 0.00428772 C7.95472055 0.00806745 11.65187791 0.01785772 15.34906006 0.0289917 C19.136998 0.03930471 22.92494263 0.04380632 26.71289062 0.04882812 C34.11720582 0.05948507 41.5214878 0.07650537 48.92578125 0.09765625 C48.92578125 0.42765625 48.92578125 0.75765625 48.92578125 1.09765625 C49.92653687 1.24013794 49.92653687 1.24013794 50.94750977 1.38549805 C86.0774874 6.44351841 119.77369716 14.69926445 151.92578125 30.09765625 C152.87227539 30.5477002 153.81876953 30.99774414 154.79394531 31.46142578 C182.25340372 44.69302422 208.33899086 62.08348032 230.6171875 82.9375 C232.69744261 84.88399928 234.82174438 86.74859211 236.98828125 88.59765625 C244.54545776 95.17921366 251.51435705 102.40147652 257.92578125 110.09765625 C258.3832373 110.64663574 258.84069336 111.19561523 259.31201172 111.76123047 C302.49941133 163.7796288 330.13789341 225.25822663 335.92578125 293.09765625 C336.03664063 294.21140625 336.1475 295.32515625 336.26171875 296.47265625 C341.1334916 353.35389606 330.97856924 412.7318562 305.92578125 464.09765625 C305.28549467 465.45397258 304.64614355 466.81073098 304.0078125 468.16796875 C292.02868585 493.24675018 276.04798546 516.11697267 257.92578125 537.09765625 C257.32121094 537.8040625 256.71664062 538.51046875 256.09375 539.23828125 C254.3910819 541.21022776 252.66455439 543.15743988 250.92578125 545.09765625 C250.50748047 545.5663916 250.08917969 546.03512695 249.65820312 546.51806641 C242.96915874 553.98625887 236.06457611 561.03357208 228.54150391 567.66894531 C226.84039009 569.17316382 225.15490516 570.6938878 223.46875 572.21484375 C214.12017421 580.56642298 204.24975327 587.99595995 193.92578125 595.09765625 C193.24322266 595.56913086 192.56066406 596.04060547 191.85742188 596.52636719 C121.95106654 644.38742388 34.05415616 661.04960568 -48.9140625 645.72021484 C-58.3839891 643.85461589 -67.73719038 641.53325772 -77.07421875 639.09765625 C-78.20851318 638.81051758 -78.20851318 638.81051758 -79.36572266 638.51757812 C-125.28523638 626.78607851 -170.24149391 601.59035172 -204.78515625 569.23828125 C-206.75437538 567.39675893 -208.76324355 565.64663748 -210.82421875 563.91015625 C-220.20109275 555.75635277 -229.17182147 546.68642119 -237.07421875 537.09765625 C-237.70714844 536.35386719 -238.34007812 535.61007812 -238.9921875 534.84375 C-249.49766495 522.30989256 -259.45200638 509.19653865 -267.25927734 494.79663086 C-270.16468964 489.69730013 -272.44653012 487.86537194 -278.07421875 486.09765625 C-277.41421875 485.76765625 -276.75421875 485.43765625 -276.07421875 485.09765625 C-276.61758163 480.0026449 -278.40127664 476.00777303 -280.76171875 471.53515625 C-281.49725754 470.09564615 -282.23162166 468.65553526 -282.96484375 467.21484375 C-283.5072168 466.15668457 -283.5072168 466.15668457 -284.06054688 465.07714844 C-293.05123339 447.52019125 -299.18215041 428.76134119 -304.63671875 409.84765625 C-305.15661377 408.0541272 -305.15661377 408.0541272 -305.68701172 406.22436523 C-306.0017041 405.10489502 -306.31639648 403.9854248 -306.640625 402.83203125 C-306.91849854 401.84428711 -307.19637207 400.85654297 -307.48266602 399.83886719 C-308.05975487 397.16468079 -308.18824382 394.82307298 -308.07421875 392.09765625 C-308.73421875 391.76765625 -309.39421875 391.43765625 -310.07421875 391.09765625 C-310.36319074 388.98348617 -310.63656608 386.86593444 -310.828125 384.74072266 C-311.07512159 382.0879597 -311.41750227 379.46558345 -311.79296875 376.828125 C-311.98439453 375.46397461 -311.98439453 375.46397461 -312.1796875 374.07226562 C-312.44108217 372.22568053 -312.70408285 370.37932202 -312.96875 368.53320312 C-324.83182069 283.63435884 -302.00070691 196.54863528 -250.62402344 128.16748047 C-244.78557225 120.4803854 -238.61943662 113.19615692 -232.07421875 106.09765625 C-230.61525289 104.4523836 -229.15692886 102.8065416 -227.69921875 101.16015625 C-224.26132782 97.34634074 -220.74047387 93.62904252 -217.13671875 89.97265625 C-216.22019531 89.04195313 -215.30367188 88.11125 -214.359375 87.15234375 C-212.07421875 85.09765625 -212.07421875 85.09765625 -210.07421875 85.09765625 C-209.57921875 83.61265625 -209.57921875 83.61265625 -209.07421875 82.09765625 C-207.31640625 80.4765625 -207.31640625 80.4765625 -204.94921875 78.66015625 C-201.90258743 76.30244016 -198.8694926 73.94425064 -195.91796875 71.46875 C-178.18900874 56.70700139 -158.59917342 44.5562559 -138.07421875 34.09765625 C-137.21795898 33.65728027 -136.36169922 33.2169043 -135.47949219 32.76318359 C-94.21465962 11.72298105 -46.35668946 -0.1818061 0 0 Z " fill="#1BADD5" transform="translate(502.07421875,183.90234375)"/>
<path d="M0 0 C1.02478958 -0.00960754 2.04957916 -0.01921509 3.10542297 -0.02911377 C4.77256599 -0.03548859 4.77256599 -0.03548859 6.47338867 -0.04199219 C7.61289474 -0.04769226 8.75240082 -0.05339233 9.92643738 -0.05926514 C12.34157378 -0.06872488 14.75672314 -0.07525297 17.171875 -0.07910156 C20.86570812 -0.08879984 24.55898328 -0.11981183 28.25268555 -0.15136719 C30.59708328 -0.15789779 32.941485 -0.16314804 35.28588867 -0.16699219 C36.39124466 -0.17933899 37.49660065 -0.19168579 38.63545227 -0.20440674 C40.18682137 -0.19990509 40.18682137 -0.19990509 41.76953125 -0.1953125 C43.12948967 -0.20078094 43.12948967 -0.20078094 44.516922 -0.20635986 C47.66620039 0.24538327 49.51572598 1.29987147 52.07885742 3.16113281 C54.40625498 6.65222915 54.32783545 7.99806537 54.32495308 12.12129498 C54.32893518 13.37432374 54.33291727 14.6273525 54.33702004 15.91835183 C54.33131357 17.31655556 54.32542237 18.71475855 54.31936646 20.11296082 C54.3202381 21.59222926 54.32198833 23.07149741 54.32454479 24.55076391 C54.32903035 28.62578856 54.32099811 32.70070867 54.31098866 36.77572 C54.30237381 41.16630137 54.30527293 45.55687655 54.30679321 49.94746399 C54.30784331 57.55781139 54.30155368 65.16812457 54.29031754 72.77846336 C54.27408239 83.78181151 54.26885657 94.78514307 54.26634155 105.7885019 C54.26196133 123.63952823 54.24864335 141.49053631 54.22973633 159.34155273 C54.211386 176.68497628 54.19722535 194.02839488 54.1887207 211.37182617 C54.18819526 212.44038242 54.18766981 213.50893866 54.18712844 214.6098754 C54.18451842 219.97036098 54.18199099 225.33084659 54.17950463 230.69133222 C54.15876193 275.18127839 54.1235275 319.67120466 54.07885742 364.16113281 C25.95385742 336.03613281 25.95385742 336.03613281 24.49311829 334.57525635 C23.10429501 333.18656793 21.71499373 331.7983576 20.32568359 330.41015625 C18.92144937 329.00454877 17.52194769 327.59417862 16.12963867 326.17675781 C15.26918945 325.30277344 15.26918945 325.30277344 14.39135742 324.41113281 C13.51930664 323.52167969 13.51930664 323.52167969 12.62963867 322.61425781 C11.12371768 321.06471477 11.12371768 321.06471477 9.07885742 320.16113281 C8.66249023 319.42894531 8.24612305 318.69675781 7.81713867 317.94238281 C5.74450604 314.6261706 3.16711862 312.22760555 0.26635742 309.66113281 C-0.49644531 308.97083984 -0.49644531 308.97083984 -1.2746582 308.26660156 C-3.85802751 305.94189661 -6.4842106 303.69461702 -9.18286133 301.50488281 C-12.40116366 298.75027312 -13.83137057 297.30415682 -14.16723824 293.02771473 C-14.16539465 291.72522124 -14.16355106 290.42272776 -14.16165161 289.08076477 C-14.16336046 288.35541273 -14.16506931 287.63006069 -14.16682994 286.88272828 C-14.17013102 284.4458891 -14.15911112 282.00932369 -14.14819336 279.57250977 C-14.14762938 277.82824714 -14.14794555 276.08398403 -14.14907837 274.33972168 C-14.14965339 269.59827362 -14.13787487 264.85692625 -14.12393045 260.11550164 C-14.11144804 255.16271487 -14.11025456 250.20992593 -14.10787964 245.25712585 C-14.10165754 235.8755137 -14.08523686 226.49394803 -14.06518066 217.11235636 C-14.04284435 206.4329318 -14.03183394 195.75350504 -14.02178979 185.07406294 C-14.00087126 163.10306027 -13.96568112 141.13209946 -13.92114258 119.16113281 C-14.58114258 119.16113281 -15.24114258 119.16113281 -15.92114258 119.16113281 C-16.18282227 119.75023437 -16.44450195 120.33933594 -16.71411133 120.94628906 C-17.98537008 123.27898715 -19.32344789 124.76467649 -21.23364258 126.59863281 C-21.80727539 127.15421875 -22.3809082 127.70980469 -22.97192383 128.28222656 C-23.61516602 128.90226563 -24.2584082 129.52230469 -24.92114258 130.16113281 C-27.55006611 132.7727608 -30.15942031 135.40159046 -32.74536133 138.05566406 C-33.69976348 139.02834478 -34.6541907 140.0010009 -35.60864258 140.97363281 C-36.33664062 141.72676758 -36.33664062 141.72676758 -37.0793457 142.49511719 C-38.32238864 143.75530554 -39.6181415 144.96304325 -40.92114258 146.16113281 C-41.58114258 146.16113281 -42.24114258 146.16113281 -42.92114258 146.16113281 C-43.17621582 146.74145264 -43.43128906 147.32177246 -43.6940918 147.91967773 C-45.04850724 150.39378999 -46.55526524 152.03834284 -48.55395508 154.02441406 C-49.2784082 154.74693359 -50.00286133 155.46945312 -50.74926758 156.21386719 C-51.8862207 157.33245117 -51.8862207 157.33245117 -53.04614258 158.47363281 C-53.7809082 159.20775391 -54.51567383 159.941875 -55.27270508 160.69824219 C-59.38941975 164.78234204 -63.61071502 168.67534733 -68.0012207 172.46166992 C-71.17210761 175.26845321 -74.1369683 178.27139079 -77.10864258 181.28613281 C-77.69838867 181.88039063 -78.28813477 182.47464844 -78.89575195 183.08691406 C-80.05234586 184.2525137 -81.20789079 185.41915529 -82.36230469 186.58691406 C-83.65283859 187.89018151 -84.95017342 189.18671053 -86.24926758 190.48144531 C-88.65709509 192.89631326 -91.04236132 195.33088776 -93.42504883 197.77050781 C-95.11105407 199.48423906 -96.79725725 201.19777559 -98.48364258 202.91113281 C-99.3337793 203.78640625 -100.18391602 204.66167969 -101.05981445 205.56347656 C-102.29248047 206.81064453 -102.29248047 206.81064453 -103.55004883 208.08300781 C-104.66488647 209.22141113 -104.66488647 209.22141113 -105.80224609 210.3828125 C-108.05878888 212.27665484 -109.00472853 212.98664228 -111.92114258 213.16113281 C-114.15281677 211.51727295 -114.15281677 211.51727295 -116.61035156 209.0078125 C-117.53488632 208.0764447 -118.45942108 207.1450769 -119.41197205 206.18548584 C-120.41383628 205.15143255 -121.41558827 204.1172705 -122.41723633 203.08300781 C-123.45204979 202.03378639 -124.48812514 200.98580816 -125.52540588 199.93902588 C-128.25836568 197.17560004 -130.97687528 194.39840889 -133.69177246 191.61724854 C-138.03028129 187.17659174 -142.38803431 182.75490064 -146.74995613 178.33725739 C-148.26902565 176.79408674 -149.78059196 175.24385284 -151.29136658 173.69256592 C-152.2282169 172.7388508 -153.16526416 171.7853291 -154.10253906 170.83203125 C-154.91432114 170.00072693 -155.72610321 169.16942261 -156.56248474 168.31292725 C-158.84867961 166.05856684 -158.84867961 166.05856684 -161.7223053 164.61920166 C-162.81072975 163.89745758 -162.81072975 163.89745758 -163.92114258 163.16113281 C-163.92114258 157.68463104 -161.64843529 155.92007981 -157.92114258 152.16113281 C-155.95524582 150.36998243 -153.95167189 148.63384225 -151.92895508 146.90722656 C-146.74100292 142.39552498 -142.14415499 137.38428399 -137.69458008 132.15332031 C-135.52994748 129.72168457 -133.22910743 127.45779401 -130.92114258 125.16113281 C-129.90131945 124.14189352 -128.88180196 123.12234835 -127.86254883 122.10253906 C-63.92114258 58.16113281 -63.92114258 58.16113281 -61.52738953 55.76837158 C-58.88654929 53.12652636 -56.24876913 50.48166283 -53.61181641 47.8359375 C-48.50143266 42.7092892 -43.38856545 37.58512551 -38.27423573 32.46241379 C-35.18622404 29.36915889 -32.09916535 26.27496455 -29.01416016 23.17871094 C-26.02150803 20.17522154 -23.02644416 17.174157 -20.02966881 14.1747818 C-18.88888228 13.03214565 -17.7489772 11.88862878 -16.60996437 10.74422455 C-15.02304246 9.1500791 -13.43305481 7.55905455 -11.84228516 5.96875 C-10.93803299 5.06227722 -10.03378082 4.15580444 -9.10212708 3.22186279 C-5.93057528 0.22518314 -4.25800601 0.03215218 0 0 Z " fill="#6BEAEC" transform="translate(654.921142578125,304.8388671875)"/>
<path d="M0 0 C3.0158732 1.87115084 5.33957427 4.30617232 7.79296875 6.85302734 C8.52565475 7.58133255 9.25834076 8.30963776 10.01322937 9.06001282 C12.42436664 11.46653556 14.80574446 13.90036005 17.1875 16.3359375 C18.85597832 18.01426321 20.52608683 19.69096975 22.19775391 21.36611938 C25.69308003 24.87671667 29.17508136 28.39982026 32.64697266 31.93359375 C37.10683557 36.47278935 41.58814191 40.99001005 46.07814026 45.49938011 C50.35087871 49.79201994 54.61359991 54.094546 58.875 58.3984375 C59.6933432 59.2235722 60.5116864 60.04870689 61.35482788 60.89884567 C63.65616793 63.22323213 65.95034848 65.55443332 68.2421875 67.88818359 C68.93092453 68.58229843 69.61966156 69.27641327 70.32926941 69.99156189 C70.94876968 70.62537277 71.56826996 71.25918365 72.20654297 71.91220093 C73.02057083 72.73904923 73.02057083 72.73904923 73.8510437 73.58260155 C75 75 75 75 75 77 C73.63671875 78.3046875 73.63671875 78.3046875 71.6875 79.875 C66.98571514 83.85279321 62.97215977 88.33273472 58.90625 92.9375 C56.88441746 95.14714205 54.76143284 97.10535391 52.47802734 99.04223633 C47.24043626 103.59397899 42.35170064 108.48411648 37.4453125 113.38671875 C36.45269681 114.37611318 35.46000952 115.36543578 34.46725464 116.35469055 C32.40316195 118.41284164 30.34109896 120.4730016 28.28027344 122.53442383 C25.64252805 125.17227155 22.99792428 127.80312845 20.35157967 130.43234539 C18.30640765 132.4664023 16.26579327 134.5049845 14.22643661 136.54487038 C13.25284036 137.51728943 12.2776287 138.48809399 11.30075455 139.45722008 C9.93940999 140.80875797 8.58502438 142.16729439 7.23095703 143.52612305 C6.46010773 144.29554733 5.68925842 145.06497162 4.89505005 145.85771179 C3.1153572 147.86959269 1.92075569 149.4833462 1 152 C1.78309467 154.23470405 1.78309467 154.23470405 3 156 C1.35 155.01 -0.3 154.02 -2 153 C-13.22556756 164.20215246 -24.44822902 175.40720768 -35.66748905 186.61567688 C-40.87746715 191.82051027 -46.08837296 197.02440833 -51.30151367 202.22607422 C-55.8480735 206.76263127 -60.39284141 211.30097473 -64.93551344 215.84142494 C-67.33833577 218.24294963 -69.74201412 220.64360252 -72.14784431 223.04211426 C-74.84057845 225.72755763 -77.53013438 228.41614683 -80.21899414 231.10546875 C-81.40151512 232.28259682 -81.40151512 232.28259682 -82.60792542 233.48350525 C-86.8180676 237.70145098 -90.83555531 242.00725194 -94.67980099 246.56269836 C-95.3332995 247.27416267 -95.3332995 247.27416267 -96 248 C-96.33 248 -96.66 248 -97 248 C-97.21050443 227.57227863 -97.36907737 207.14477819 -97.46630955 186.71619606 C-97.51266207 177.23018704 -97.5758241 167.74485302 -97.67895508 158.25927734 C-97.7688311 149.98887747 -97.826764 141.71896655 -97.84679645 133.44809186 C-97.85850188 129.07086405 -97.88588875 124.69503466 -97.95157051 120.31825638 C-98.01297969 116.19248887 -98.03144234 112.06868603 -98.01796913 107.94250488 C-98.0204312 106.43401762 -98.03814991 104.92545997 -98.07284927 103.41736984 C-98.23906856 95.81590768 -97.96376517 90.21176491 -92.68516541 84.27767944 C-91.150772 82.82241894 -89.58993431 81.3943655 -88 80 C-86.66291732 78.64812425 -85.33315549 77.28890695 -84.015625 75.91796875 C-82.76303816 74.67183854 -81.50786814 73.42829895 -80.25 72.1875 C-79.61707031 71.55908203 -78.98414063 70.93066406 -78.33203125 70.28320312 C-75.62651557 67.59737415 -72.9158107 64.91686894 -70.203125 62.23828125 C-67.87853271 59.93826685 -67.87853271 59.93826685 -65.5 57 C-63.1270195 54.1524234 -60.63448795 51.60443676 -58 49 C-56.35227536 47.34767478 -54.70491249 45.69498874 -53.05786133 44.04199219 C-48.34661003 39.31449045 -43.63288789 34.58946088 -38.91769886 29.86588669 C-36.07182401 27.01476764 -33.22690361 24.16270881 -30.3840332 21.30859375 C-27.62480057 18.53852231 -24.86315533 15.77087771 -22.0997982 13.00492096 C-21.04832609 11.95159977 -19.99773521 10.89739814 -18.9480381 9.84230804 C-17.4856487 8.37269286 -16.0201936 6.90620319 -14.55395508 5.44042969 C-13.72076248 4.60501648 -12.88756989 3.76960327 -12.02912903 2.90887451 C-8.44697868 -0.4609829 -4.76304026 -0.98487773 0 0 Z " fill="#036AC9" transform="translate(414,390)"/>
<path d="M0 0 C0.66 0 1.32 0 2 0 C2.06420639 0.71484055 2.12841278 1.42968109 2.19456482 2.16618347 C3.26552507 5.93421464 5.10904911 7.58992574 7.88696289 10.34106445 C8.39429459 10.84898026 8.90162628 11.35689606 9.42433167 11.88020325 C11.09779759 13.55089016 12.78496644 15.20697459 14.47265625 16.86328125 C15.63795042 18.02111241 16.80236257 19.17983191 17.96592712 20.33940125 C21.02649304 23.38471575 24.09888116 26.4178257 27.17388916 29.44854736 C30.31130805 32.54500328 33.4373936 35.65285447 36.56445312 38.75976562 C42.69860204 44.85105232 48.84528752 50.92949206 55 57 C54.23338547 57.76595993 53.46677094 58.53191986 52.67692566 59.3210907 C50.8359041 61.16347649 48.9978941 63.0080085 47.16918945 64.86254883 C44.46794632 67.59911313 41.76084284 70.3297917 39.05151367 73.05834961 C37.88503189 74.23498468 36.72033729 75.413394 35.55737305 76.59350586 C33.87231942 78.30268913 32.18100093 80.00544429 30.48828125 81.70703125 C29.96744461 82.23819046 29.44660797 82.76934967 28.9099884 83.31660461 C27.64405856 84.58292938 26.32626653 85.79701461 25 87 C24.34 87 23.68 87 23 87 C23 87.66 23 88.32 23 89 C22.34 89 21.68 89 21 89 C20.79632813 89.52980469 20.59265625 90.05960938 20.3828125 90.60546875 C18.39895278 94.04079646 15.69752332 96.55091752 12.875 99.3125 C12.33101563 99.85583984 11.78703125 100.39917969 11.2265625 100.95898438 C8.27094828 103.88352321 5.24453826 106.68124492 2.09375 109.39453125 C-2.2788745 113.18017329 -6.32536861 117.24939054 -10.375 121.375 C-11.77632747 122.80175991 -13.1798635 124.22635507 -14.5859375 125.6484375 C-15.1948584 126.26895996 -15.8037793 126.88948242 -16.43115234 127.52880859 C-18.96189524 129.90202003 -21.39902354 130.65807803 -24.890625 130.5859375 C-32.45153356 128.48568512 -38.63079634 119.35035006 -43.66943359 113.73876953 C-47.78144125 109.17003273 -52.10126733 104.83486795 -56.49731445 100.54003906 C-59.90462648 97.18774398 -62.96422354 93.69187909 -66 90 C-66.845625 89.195625 -67.69125 88.39125 -68.5625 87.5625 C-71.41523492 84.56347099 -73.06864828 81.64810881 -75 78 C-69.07580755 71.30253803 -62.98240577 64.83364423 -56.65234375 58.51953125 C-55.79620987 57.66244064 -54.94007599 56.80535004 -54.05799866 55.92228699 C-52.26344465 54.12705791 -50.46764904 52.33306915 -48.6706543 50.5402832 C-45.93748595 47.81248598 -43.20971705 45.07937105 -40.48242188 42.34570312 C-38.72688313 40.59082502 -36.97103429 38.83625706 -35.21484375 37.08203125 C-34.40941635 36.27457962 -33.60398895 35.46712799 -32.77415466 34.63520813 C-28.54980868 30.42812903 -24.23793483 26.40410411 -19.72065735 22.51393127 C-17.60846662 20.65550687 -15.68357886 18.67636859 -13.7890625 16.59765625 C-13.10199219 15.85322266 -12.41492188 15.10878906 -11.70703125 14.34179688 C-10.29473334 12.79568837 -8.88330299 11.24878703 -7.47265625 9.70117188 C-6.45365234 8.59805664 -6.45365234 8.59805664 -5.4140625 7.47265625 C-4.50068115 6.47117554 -4.50068115 6.47117554 -3.56884766 5.44946289 C-2 4 -2 4 0 4 C0 2.68 0 1.36 0 0 Z " fill="#079AD7" transform="translate(489,463)"/>
<path d="M0 0 C8.94812421 4.64820225 15.3857085 11.54723761 19 21 C21.61356451 31.08835903 21.27906382 42.91281894 16 52 C9.6364736 62.19631319 1.73405819 68.0092151 -10 71 C-21.21899326 72.33008683 -31.01136868 70.73339053 -40.3125 64.1875 C-47.64806912 58.16933921 -53.99878798 50.63268562 -55.27490234 40.90429688 C-56.22054203 28.6242252 -54.57452011 18.61206008 -46.69140625 8.8125 C-33.92279626 -4.8702599 -16.8867082 -6.99282916 0 0 Z " fill="#024FA4" transform="translate(567,620)"/>
<path d="M0 0 C7.43133718 5.44055695 13.1181731 13.26997409 15.125 22.3125 C16.58143227 33.93423502 15.25430506 44.14897162 8.29296875 53.87109375 C0.70358992 62.98732985 -8.0457038 67.35355657 -19.82421875 68.6328125 C-29.91058012 69.02835608 -39.2925532 66.43157941 -47.1328125 59.94140625 C-54.26123167 53.27649415 -59.50655712 45.73190858 -60.078125 35.7734375 C-60.31255593 23.80866887 -59.26913206 15.05080986 -51.17578125 5.640625 C-36.84426206 -8.86121785 -17.4269058 -10.63989657 0 0 Z " fill="#014DA4" transform="translate(462.875,622.6875)"/>
<path d="M0 0 C0.96679688 0.00902344 1.93359375 0.01804688 2.9296875 0.02734375 C3.65414063 0.03894531 4.37859375 0.05054688 5.125 0.0625 C2.76230498 2.42519502 1.95026852 2.41181784 -1.28515625 2.7734375 C-2.18363281 2.88147705 -3.08210938 2.9895166 -4.0078125 3.10083008 C-5.45800781 3.26748169 -5.45800781 3.26748169 -6.9375 3.4375 C-16.80196814 4.68411738 -26.272932 6.51333174 -35.875 9.0625 C-37.25461914 9.42529053 -37.25461914 9.42529053 -38.66210938 9.79541016 C-50.9282131 12.93469755 -50.9282131 12.93469755 -62.875 17.0625 C-63.865 17.0625 -64.855 17.0625 -65.875 17.0625 C-66.205 18.0525 -66.535 19.0425 -66.875 20.0625 C-67.82375 20.145 -68.7725 20.2275 -69.75 20.3125 C-74.04027985 20.90032975 -77.78120445 22.51984066 -81.73828125 24.22265625 C-83.875 25.0625 -83.875 25.0625 -85.875 25.0625 C-85.875 25.7225 -85.875 26.3825 -85.875 27.0625 C-86.59300781 27.30742187 -87.31101562 27.55234375 -88.05078125 27.8046875 C-97.86682041 31.34970787 -106.85736935 36.10690179 -115.99658203 41.11035156 C-117.875 42.0625 -117.875 42.0625 -120.875 43.0625 C-120.875 43.7225 -120.875 44.3825 -120.875 45.0625 C-121.926875 45.454375 -122.97875 45.84625 -124.0625 46.25 C-127.82877531 47.85764858 -130.04316832 50.08907673 -132.875 53.0625 C-135.85359851 55.46882148 -138.68569788 57.62776315 -142.30078125 58.94921875 C-145.33322341 60.26066946 -147.16940215 61.9170237 -149.5625 64.1875 C-155.93882789 70.08798253 -162.38518247 75.63208251 -169.875 80.0625 C-171.45833333 81.47916667 -171.45833333 81.47916667 -172.875 83.0625 C-174.16855827 84.43445574 -175.49798702 85.77432656 -176.875 87.0625 C-177.535 87.0625 -178.195 87.0625 -178.875 87.0625 C-179.37 88.5475 -179.37 88.5475 -179.875 90.0625 C-184.05960989 94.55762864 -188.73805708 98.51778292 -193.3515625 102.5625 C-195.75247072 104.94110877 -197.22470108 107.141971 -198.875 110.0625 C-200.20833333 111.0625 -201.54166667 112.0625 -202.875 113.0625 C-203.37 113.908125 -203.865 114.75375 -204.375 115.625 C-205.875 118.0625 -205.875 118.0625 -207.9375 119.0625 C-210.6903685 120.48333535 -210.87357228 122.19174054 -211.875 125.0625 C-213.375 127.875 -213.375 127.875 -214.875 130.0625 C-215.535 130.0625 -216.195 130.0625 -216.875 130.0625 C-217.019375 130.68125 -217.16375 131.3 -217.3125 131.9375 C-217.875 134.0625 -217.875 134.0625 -218.875 136.0625 C-219.535 136.0625 -220.195 136.0625 -220.875 136.0625 C-221.535 138.0425 -222.195 140.0225 -222.875 142.0625 C-223.535 142.0625 -224.195 142.0625 -224.875 142.0625 C-225.205 143.3825 -225.535 144.7025 -225.875 146.0625 C-226.535 146.0625 -227.195 146.0625 -227.875 146.0625 C-227.978125 146.784375 -228.08125 147.50625 -228.1875 148.25 C-228.94293947 151.34043421 -230.03031315 153.47993841 -231.875 156.0625 C-232.535 156.0625 -233.195 156.0625 -233.875 156.0625 C-234.37 159.0325 -234.37 159.0325 -234.875 162.0625 C-235.535 162.0625 -236.195 162.0625 -236.875 162.0625 C-236.97683594 162.619375 -237.07867187 163.17625 -237.18359375 163.75 C-238.28715605 167.44101062 -240.51572215 170.41147348 -242.59765625 173.625 C-244.18444407 176.19434697 -244.18444407 176.19434697 -243.875 180.0625 C-244.535 180.0625 -245.195 180.0625 -245.875 180.0625 C-246.535 182.0425 -247.195 184.0225 -247.875 186.0625 C-248.535 186.0625 -249.195 186.0625 -249.875 186.0625 C-249.83375 186.825625 -249.7925 187.58875 -249.75 188.375 C-249.875 191.0625 -249.875 191.0625 -251.875 194.0625 C-253.5008453 197.76968033 -254.6654875 201.55884728 -255.8125 205.4375 C-257.94434172 212.46468195 -257.94434172 212.46468195 -259.4375 215.8125 C-262.71497937 223.22245337 -264.68010561 230.93752489 -266.5 238.8125 C-266.7165625 239.73160156 -266.933125 240.65070313 -267.15625 241.59765625 C-267.94110872 244.94541781 -268.72389542 248.28551585 -269.38037109 251.66113281 C-269.875 254.0625 -269.875 254.0625 -270.875 257.25 C-271.90665641 261.18319006 -272.32563524 264.88423079 -272.62890625 268.92578125 C-272.875 271.0625 -272.875 271.0625 -273.875 273.0625 C-273.875 273.84625 -273.875 274.63 -273.875 275.4375 C-273.875 278.0625 -273.875 278.0625 -274.37890625 279.89453125 C-275.1568234 283.29409047 -274.83851749 286.64546944 -274.71484375 290.11328125 C-274.875 293.0625 -274.875 293.0625 -275.8684082 296.17529297 C-277.14817734 300.52511425 -277.16313482 304.69960727 -277.140625 309.20703125 C-277.14253845 310.05802902 -277.1444519 310.90902679 -277.14642334 311.78581238 C-277.14777683 313.57164814 -277.14413919 315.35749402 -277.13574219 317.14331055 C-277.12496393 319.88417343 -277.13569964 322.62439078 -277.1484375 325.36523438 C-277.14711706 327.10416812 -277.14455705 328.84310145 -277.140625 330.58203125 C-277.14467346 331.40282669 -277.14872192 332.22362213 -277.15289307 333.06929016 C-277.30304567 337.53811662 -277.30304567 337.53811662 -274.875 341.0625 C-274.34584167 346.12986369 -274.75557537 351.10504807 -275.875 356.0625 C-275.545 356.3925 -275.215 356.7225 -274.875 357.0625 C-273.62398106 362.68751947 -272.7307616 368.29296382 -272.875 374.0625 C-272.875 377.9287729 -272.55970121 378.8707809 -270.875 382.0625 C-270.875 383.72916667 -270.875 385.39583333 -270.875 387.0625 C-270.23985174 389.40460921 -269.5763284 391.73934969 -268.875 394.0625 C-268.875 394.7225 -268.875 395.3825 -268.875 396.0625 C-268.215 396.3925 -267.555 396.7225 -266.875 397.0625 C-266.875 401.0225 -266.875 404.9825 -266.875 409.0625 C-265.885 409.3925 -264.895 409.7225 -263.875 410.0625 C-263.91238281 410.78953125 -263.94976562 411.5165625 -263.98828125 412.265625 C-263.86782461 415.23965782 -263.24605516 417.099632 -262.0625 419.8125 C-260.08943535 424.50200226 -258.4372858 429.22363641 -256.875 434.0625 C-256.33488415 435.68801612 -255.79324102 437.31302563 -255.25 438.9375 C-252.875 446.0625 -252.875 446.0625 -252.875 449.0625 C-252.215 449.0625 -251.555 449.0625 -250.875 449.0625 C-248.60123708 454.02343728 -247.08876034 458.74062773 -245.875 464.0625 C-245.215 464.0625 -244.555 464.0625 -243.875 464.0625 C-243.25625 465.5475 -243.25625 465.5475 -242.625 467.0625 C-241.12564144 470.58491652 -239.42234927 473.97410757 -237.64453125 477.36328125 C-236.875 479.0625 -236.875 479.0625 -236.875 481.0625 C-236.215 481.0625 -235.555 481.0625 -234.875 481.0625 C-234.58625 481.84625 -234.2975 482.63 -234 483.4375 C-233.02587746 486.15921632 -233.02587746 486.15921632 -230.875 488.0625 C-230.875 489.0525 -230.875 490.0425 -230.875 491.0625 C-229.885 491.3925 -228.895 491.7225 -227.875 492.0625 C-226.62890625 494.20703125 -226.62890625 494.20703125 -225.4375 496.875 C-223.63397231 500.68724714 -221.96458735 503.17224086 -218.875 506.0625 C-218.15853818 507.25388917 -217.47294771 508.46417072 -216.8125 509.6875 C-215.11548633 513.22387593 -215.11548633 513.22387593 -211.875 515.0625 C-211.875 516.0525 -211.875 517.0425 -211.875 518.0625 C-210.885 518.3925 -209.895 518.7225 -208.875 519.0625 C-208.545 520.7125 -208.215 522.3625 -207.875 524.0625 C-207.215 524.0625 -206.555 524.0625 -205.875 524.0625 C-204.359375 525.78515625 -204.359375 525.78515625 -202.625 528.125 C-200.33566239 531.14406397 -198.04793156 534.1489248 -195.625 537.0625 C-195.16609375 537.619375 -194.7071875 538.17625 -194.234375 538.75 C-192.79461281 540.32899323 -192.79461281 540.32899323 -189.875 541.0625 C-189.45605469 541.76761719 -189.03710938 542.47273437 -188.60546875 543.19921875 C-186.31014642 546.99712228 -183.35536449 549.79637113 -180.1875 552.875 C-179.58099609 553.47248047 -178.97449219 554.06996094 -178.34960938 554.68554688 C-176.86259688 556.14914185 -175.36941189 557.60646102 -173.875 559.0625 C-174.535 559.7225 -175.195 560.3825 -175.875 561.0625 C-178.90010958 558.06678676 -181.91927875 555.06515195 -184.9375 552.0625 C-185.78505859 551.22332031 -186.63261719 550.38414062 -187.50585938 549.51953125 C-192.51086852 544.53384647 -197.31174655 539.45536652 -201.875 534.0625 C-202.94427734 532.81533203 -202.94427734 532.81533203 -204.03515625 531.54296875 C-214.40882446 519.03918387 -224.30234672 506.06997449 -232.06005859 491.76147461 C-234.96547089 486.66214388 -237.24731137 484.83021569 -242.875 483.0625 C-242.215 482.7325 -241.555 482.4025 -240.875 482.0625 C-241.41836288 476.96748865 -243.20205789 472.97261678 -245.5625 468.5 C-246.29803879 467.0604899 -247.03240291 465.62037901 -247.765625 464.1796875 C-248.30799805 463.12152832 -248.30799805 463.12152832 -248.86132812 462.04199219 C-257.85201464 444.485035 -263.98293166 425.72618494 -269.4375 406.8125 C-269.95739502 405.01897095 -269.95739502 405.01897095 -270.48779297 403.18920898 C-270.80248535 402.06973877 -271.11717773 400.95026855 -271.44140625 399.796875 C-271.71927979 398.80913086 -271.99715332 397.82138672 -272.28344727 396.80371094 C-272.86053612 394.12952454 -272.98902507 391.78791673 -272.875 389.0625 C-273.535 388.7325 -274.195 388.4025 -274.875 388.0625 C-275.16397199 385.94832992 -275.43734733 383.83077819 -275.62890625 381.70556641 C-275.87590284 379.05280345 -276.21828352 376.4304272 -276.59375 373.79296875 C-276.78517578 372.42881836 -276.78517578 372.42881836 -276.98046875 371.03710938 C-277.24186342 369.19052428 -277.5048641 367.34416577 -277.76953125 365.49804688 C-289.63260194 280.59920259 -266.80148816 193.51347903 -215.42480469 125.13232422 C-209.5863535 117.44522915 -203.42021787 110.16100067 -196.875 103.0625 C-195.41603414 101.41722735 -193.95771011 99.77138535 -192.5 98.125 C-189.06210907 94.31118449 -185.54125512 90.59388627 -181.9375 86.9375 C-181.02097656 86.00679688 -180.10445313 85.07609375 -179.16015625 84.1171875 C-176.875 82.0625 -176.875 82.0625 -174.875 82.0625 C-174.38 80.5775 -174.38 80.5775 -173.875 79.0625 C-172.1171875 77.44140625 -172.1171875 77.44140625 -169.75 75.625 C-166.70336868 73.26728391 -163.67027385 70.90909439 -160.71875 68.43359375 C-142.98978999 53.67184514 -123.39995467 41.52109965 -102.875 31.0625 C-102.01874023 30.62212402 -101.16248047 30.18174805 -100.28027344 29.72802734 C-71.39295316 14.99889768 -32.98912839 -0.40230644 0 0 Z " fill="#2C86CC" transform="translate(466.875,186.9375)"/>
<path d="M0 0 C1.02478958 -0.00960754 2.04957916 -0.01921509 3.10542297 -0.02911377 C4.77256599 -0.03548859 4.77256599 -0.03548859 6.47338867 -0.04199219 C7.61289474 -0.04769226 8.75240082 -0.05339233 9.92643738 -0.05926514 C12.34157378 -0.06872488 14.75672314 -0.07525297 17.171875 -0.07910156 C20.86570812 -0.08879984 24.55898328 -0.11981183 28.25268555 -0.15136719 C30.59708328 -0.15789779 32.941485 -0.16314804 35.28588867 -0.16699219 C36.39124466 -0.17933899 37.49660065 -0.19168579 38.63545227 -0.20440674 C40.18682137 -0.19990509 40.18682137 -0.19990509 41.76953125 -0.1953125 C43.12948967 -0.20078094 43.12948967 -0.20078094 44.516922 -0.20635986 C47.66620039 0.24538327 49.51572598 1.29987147 52.07885742 3.16113281 C54.33931946 6.55182587 54.32826604 7.69635636 54.32609558 11.66911316 C54.33029007 12.81441498 54.33448456 13.9597168 54.33880615 15.13972473 C54.33318665 16.39742172 54.32756714 17.65511871 54.32177734 18.95092773 C54.32285026 20.28812757 54.32478909 21.62532695 54.32752991 22.96252441 C54.3323822 26.59711132 54.32471591 30.23157566 54.31457686 33.86614776 C54.30579299 37.67275207 54.30755394 41.47935258 54.30793762 45.28596497 C54.30700051 51.68423511 54.29831364 58.08245789 54.28466797 64.48071289 C54.26897553 71.86568053 54.26366871 79.25059617 54.26440352 86.63557929 C54.26508082 94.50677993 54.25812537 102.37796067 54.24895692 110.24915528 C54.24683129 112.5111532 54.24611649 114.77314789 54.245718 117.03514671 C54.24470817 120.60150152 54.2385596 124.16781321 54.22855186 127.73415375 C54.22426944 129.65773069 54.22479564 131.58131649 54.22549438 133.50489807 C54.20349519 139.48520001 53.99729277 145.24889615 53.07885742 151.16113281 C52.74885742 151.16113281 52.41885742 151.16113281 52.07885742 151.16113281 C51.24325464 119.11630671 50.9439191 87.09627021 51.01019287 55.04125977 C51.02071208 49.38004965 51.02504944 43.7188344 51.0300293 38.05761719 C51.04052496 27.09210986 51.05742079 16.12662386 51.07885742 5.16113281 C44.42610914 3.61748749 38.16720854 2.86208346 31.34448242 2.89550781 C30.4628241 2.89359436 29.58116577 2.89168091 28.67279053 2.88970947 C26.82751171 2.88835996 24.98222299 2.89196922 23.13696289 2.90039062 C20.32180504 2.91115979 17.50727773 2.90042685 14.69213867 2.88769531 C12.88875186 2.88901612 11.08536543 2.89157689 9.28198242 2.89550781 C8.03025238 2.88943512 8.03025238 2.88943512 6.75323486 2.88323975 C-0.58505898 2.9419401 -5.20832079 4.40044799 -10.92114258 9.16113281 C-11.58114258 9.16113281 -12.24114258 9.16113281 -12.92114258 9.16113281 C-13.28272461 10.01191406 -13.28272461 10.01191406 -13.65161133 10.87988281 C-15.17338446 13.61439207 -17.00165027 15.47040423 -19.23364258 17.66113281 C-20.44213867 18.84835937 -20.44213867 18.84835937 -21.67504883 20.05957031 C-23.92114258 22.16113281 -23.92114258 22.16113281 -26.67114258 24.28613281 C-29.27735881 26.45797967 -30.83755014 28.80460108 -32.61254883 31.67285156 C-33.92114258 33.16113281 -33.92114258 33.16113281 -36.01098633 33.68066406 C-36.64133789 33.83921875 -37.27168945 33.99777344 -37.92114258 34.16113281 C-38.25114258 35.15113281 -38.58114258 36.14113281 -38.92114258 37.16113281 C-39.58114258 37.16113281 -40.24114258 37.16113281 -40.92114258 37.16113281 C-41.01395508 38.02738281 -41.01395508 38.02738281 -41.10864258 38.91113281 C-42.24173278 42.04892107 -44.29831982 43.17802293 -46.92114258 45.16113281 C-47.58114258 46.15113281 -48.24114258 47.14113281 -48.92114258 48.16113281 C-49.58114258 48.16113281 -50.24114258 48.16113281 -50.92114258 48.16113281 C-50.92114258 48.82113281 -50.92114258 49.48113281 -50.92114258 50.16113281 C-52.58780924 51.49446615 -54.25447591 52.82779948 -55.92114258 54.16113281 C-57.11026671 55.60736487 -58.29838501 57.05456086 -59.46801758 58.51660156 C-61.76934187 61.12105728 -64.41294712 63.30141783 -67.05786133 65.54785156 C-69.06328694 67.23819915 -69.06328694 67.23819915 -71.29614258 69.59863281 C-72.92114258 71.16113281 -72.92114258 71.16113281 -74.92114258 71.16113281 C-74.92114258 72.15113281 -74.92114258 73.14113281 -74.92114258 74.16113281 C-76.5416807 75.55016548 -78.21819471 76.87446109 -79.92114258 78.16113281 C-82.30868276 80.48414488 -84.63199426 82.86137867 -86.94458008 85.25878906 C-87.6587207 85.9896875 -88.37286133 86.72058594 -89.10864258 87.47363281 C-89.78282227 88.17101562 -90.45700195 88.86839844 -91.15161133 89.58691406 C-92.92114258 91.16113281 -92.92114258 91.16113281 -94.92114258 91.16113281 C-95.16864258 91.96550781 -95.41614258 92.76988281 -95.67114258 93.59863281 C-96.92114258 96.16113281 -96.92114258 96.16113281 -99.04614258 96.97363281 C-99.66489258 97.03550781 -100.28364258 97.09738281 -100.92114258 97.16113281 C-98.30687651 92.03443907 -94.41675898 88.40275989 -90.36645508 84.41113281 C-89.62789276 83.67540039 -88.88933044 82.93966797 -88.12838745 82.18164062 C-85.77230619 79.83672062 -83.40937143 77.49884707 -81.04614258 75.16113281 C-79.46365086 73.58867941 -77.8816146 72.01576751 -76.30004883 70.44238281 C-72.80190385 66.96383877 -69.29942447 63.48972792 -65.79299927 60.01953125 C-61.71755995 55.97339347 -57.66587163 51.90347974 -53.61181641 47.8359375 C-48.50143266 42.7092892 -43.38856545 37.58512551 -38.27423573 32.46241379 C-35.18622404 29.36915889 -32.09916535 26.27496455 -29.01416016 23.17871094 C-26.02150803 20.17522154 -23.02644416 17.174157 -20.02966881 14.1747818 C-18.88888228 13.03214565 -17.7489772 11.88862878 -16.60996437 10.74422455 C-15.02304246 9.1500791 -13.43305481 7.55905455 -11.84228516 5.96875 C-10.93803299 5.06227722 -10.03378082 4.15580444 -9.10212708 3.22186279 C-5.93057528 0.22518314 -4.25800601 0.03215218 0 0 Z " fill="#BDF5F3" transform="translate(654.921142578125,304.8388671875)"/>
<path d="M0 0 C0.99 0.495 0.99 0.495 2 1 C0.59448102 8.40600384 -1.78718509 15.08973563 -4.625 22.0625 C-5.07012939 23.16432617 -5.51525879 24.26615234 -5.97387695 25.40136719 C-9.56618799 34.17700745 -13.5424089 42.63617603 -18 51 C-18.58394531 52.12277344 -19.16789063 53.24554687 -19.76953125 54.40234375 C-31.12533671 75.96043041 -45.10265478 95.59511029 -61 114 C-61.60457031 114.70640625 -62.20914063 115.4128125 -62.83203125 116.140625 C-64.53469935 118.11257151 -66.26122686 120.05978363 -68 122 C-68.41830078 122.46873535 -68.83660156 122.9374707 -69.26757812 123.42041016 C-75.95662251 130.88860262 -82.86120514 137.93591583 -90.38427734 144.57128906 C-92.08539116 146.07550757 -93.77087609 147.59623155 -95.45703125 149.1171875 C-104.80560704 157.46876673 -114.67602798 164.8983037 -125 172 C-125.68255859 172.47147461 -126.36511719 172.94294922 -127.06835938 173.42871094 C-155.69178967 193.02560757 -200.19656054 220.05507879 -236 219 C-233.21726345 217.1448423 -231.54731446 216.4768992 -228.38671875 215.66796875 C-227.47446533 215.42900879 -226.56221191 215.19004883 -225.62231445 214.94384766 C-224.65382568 214.69425293 -223.68533691 214.4446582 -222.6875 214.1875 C-214.81111283 212.111074 -207.18890684 209.80782633 -199.58203125 206.8828125 C-197 206 -197 206 -194 206 C-194 205.34 -194 204.68 -194 204 C-192.865625 203.87625 -191.73125 203.7525 -190.5625 203.625 C-189.386875 203.41875 -188.21125 203.2125 -187 203 C-186.67 202.34 -186.34 201.68 -186 201 C-183.67843403 200.59270772 -181.3431213 200.25561323 -179 200 C-179 199.34 -179 198.68 -179 198 C-177.41800369 197.35089846 -175.83434276 196.70585306 -174.25 196.0625 C-172.92742188 195.52302734 -172.92742188 195.52302734 -171.578125 194.97265625 C-169 194 -169 194 -166.734375 193.49609375 C-166.16203125 193.33238281 -165.5896875 193.16867187 -165 193 C-164.67 192.34 -164.34 191.68 -164 191 C-162.42138138 190.31364408 -160.8390666 189.63491477 -159.2421875 188.9921875 C-155.51495587 187.34285504 -152.00464495 185.29869731 -148.453125 183.3046875 C-146 182 -146 182 -143 181 C-142.67 180.34 -142.34 179.68 -142 179 C-141.67 178.34 -141.34 177.68 -141 177 C-139.68 177 -138.36 177 -137 177 C-135.31066078 175.3563186 -133.64740076 173.6857124 -132 172 C-126.09584665 168 -126.09584665 168 -123 168 C-123 167.34 -123 166.68 -123 166 C-121.35 165.67 -119.7 165.34 -118 165 C-118 164.34 -118 163.68 -118 163 C-117.21625 162.7525 -116.4325 162.505 -115.625 162.25 C-112.56058543 160.79075497 -112.38274239 159.94985044 -111 157 C-108.9375 155.875 -108.9375 155.875 -107 155 C-106.67 154.34 -106.34 153.68 -106 153 C-104.66666667 152.33333333 -103.33333333 151.66666667 -102 151 C-101.67 150.34 -101.34 149.68 -101 149 C-100.195625 148.525625 -99.39125 148.05125 -98.5625 147.5625 C-95.7644028 146.10335955 -95.7644028 146.10335955 -94 143 C-93.34 143 -92.68 143 -92 143 C-92 142.34 -92 141.68 -92 141 C-90.34166309 139.98624634 -88.67324707 138.98894995 -87 138 C-85.41243971 136.59176545 -83.87043085 135.13070873 -82.375 133.625 C-81.61960937 132.87476563 -80.86421875 132.12453125 -80.0859375 131.3515625 C-78.02563935 129.02890429 -76.5822938 126.65843598 -75 124 C-73.67479497 123.31731862 -72.34187818 122.6492959 -71 122 C-70.31513275 120.67592331 -69.65129797 119.34090759 -69 118 C-66.53961938 115.40662583 -63.96330779 112.96505504 -61.375 110.5 C-59.11291906 108.11886217 -57.66759166 105.80458598 -56 103 C-55.01 102.34 -54.02 101.68 -53 101 C-53 99.68 -53 98.36 -53 97 C-52.01 97 -51.02 97 -50 97 C-49.62875 96.13375 -49.62875 96.13375 -49.25 95.25 C-48 93 -48 93 -46.125 91.25 C-43.67655869 88.65753273 -42.51108035 86.09084345 -41.01171875 82.890625 C-39.72675842 80.48938639 -37.94734289 78.88019313 -36 77 C-35.835 76.34 -35.67 75.68 -35.5 75 C-35 73 -35 73 -33.1875 71.3125 C-30.06912555 68.01593273 -28.67617786 64.17261296 -27 60 C-26.34 60 -25.68 60 -25 60 C-24.896875 59.278125 -24.79375 58.55625 -24.6875 57.8125 C-23.92359191 54.68742146 -22.66923795 52.75136462 -21 50 C-19.66401579 47.48035875 -18.39319862 44.92931479 -17.125 42.375 C-16.60099609 41.32082886 -16.60099609 41.32082886 -16.06640625 40.24536133 C-10.49719141 30.5236203 -10.49719141 30.5236203 -8 20 C-7.34 20 -6.68 20 -6 20 C-5.81824219 19.31035156 -5.63648438 18.62070312 -5.44921875 17.91015625 C-3.83165834 11.86296885 -2.05819325 5.91183168 0 0 Z " fill="#15BBC5" transform="translate(821,607)"/>
<path d="M0 0 C0.96679688 0.00902344 1.93359375 0.01804688 2.9296875 0.02734375 C3.65414062 0.03894531 4.37859375 0.05054688 5.125 0.0625 C2.76230498 2.42519502 1.95026852 2.41181784 -1.28515625 2.7734375 C-2.18363281 2.88147705 -3.08210937 2.9895166 -4.0078125 3.10083008 C-5.45800781 3.26748169 -5.45800781 3.26748169 -6.9375 3.4375 C-16.80196814 4.68411738 -26.272932 6.51333174 -35.875 9.0625 C-37.25461914 9.42529053 -37.25461914 9.42529053 -38.66210938 9.79541016 C-50.9282131 12.93469755 -50.9282131 12.93469755 -62.875 17.0625 C-63.865 17.0625 -64.855 17.0625 -65.875 17.0625 C-66.205 18.0525 -66.535 19.0425 -66.875 20.0625 C-67.82375 20.145 -68.7725 20.2275 -69.75 20.3125 C-74.04027985 20.90032975 -77.78120445 22.51984066 -81.73828125 24.22265625 C-83.875 25.0625 -83.875 25.0625 -85.875 25.0625 C-85.875 25.7225 -85.875 26.3825 -85.875 27.0625 C-86.59300781 27.30742187 -87.31101562 27.55234375 -88.05078125 27.8046875 C-97.86682041 31.34970787 -106.85736935 36.10690179 -115.99658203 41.11035156 C-117.875 42.0625 -117.875 42.0625 -120.875 43.0625 C-120.875 43.7225 -120.875 44.3825 -120.875 45.0625 C-121.926875 45.454375 -122.97875 45.84625 -124.0625 46.25 C-127.82877531 47.85764858 -130.04316832 50.08907673 -132.875 53.0625 C-135.85359851 55.46882148 -138.68569788 57.62776315 -142.30078125 58.94921875 C-145.33322341 60.26066946 -147.16940215 61.9170237 -149.5625 64.1875 C-155.93882789 70.08798253 -162.38518247 75.63208251 -169.875 80.0625 C-171.45833333 81.47916667 -171.45833333 81.47916667 -172.875 83.0625 C-174.16855827 84.43445574 -175.49798702 85.77432656 -176.875 87.0625 C-177.535 87.0625 -178.195 87.0625 -178.875 87.0625 C-179.37 88.5475 -179.37 88.5475 -179.875 90.0625 C-184.05960989 94.55762864 -188.73805708 98.51778292 -193.3515625 102.5625 C-195.75247072 104.94110877 -197.22470108 107.141971 -198.875 110.0625 C-200.875 111.5625 -200.875 111.5625 -202.875 113.0625 C-203.37 113.908125 -203.865 114.75375 -204.375 115.625 C-205.875 118.0625 -205.875 118.0625 -207.9375 119.0625 C-210.13882073 119.93092232 -210.13882073 119.93092232 -210.875 122.5625 C-211.875 125.0625 -211.875 125.0625 -214 126.375 C-214.61875 126.601875 -215.2375 126.82875 -215.875 127.0625 C-213.18109957 122.05412173 -210.25005468 117.82520143 -206.5 113.5625 C-205.72595825 112.67171753 -205.72595825 112.67171753 -204.9362793 111.76293945 C-198.75627073 104.70284011 -192.35581209 97.84626481 -185.875 91.0625 C-185.39272949 90.55686523 -184.91045898 90.05123047 -184.41357422 89.53027344 C-179.05543087 83.94235746 -179.05543087 83.94235746 -176.875 82.0625 C-176.215 82.0625 -175.555 82.0625 -174.875 82.0625 C-174.38 80.5775 -174.38 80.5775 -173.875 79.0625 C-172.1171875 77.44140625 -172.1171875 77.44140625 -169.75 75.625 C-166.70336868 73.26728391 -163.67027385 70.90909439 -160.71875 68.43359375 C-142.98978999 53.67184514 -123.39995467 41.52109965 -102.875 31.0625 C-102.01874023 30.62212402 -101.16248047 30.18174805 -100.28027344 29.72802734 C-71.39295316 14.99889768 -32.98912839 -0.40230644 0 0 Z " fill="#2490CA" transform="translate(466.875,186.9375)"/>
<path d="M0 0 C27.88163464 7.93342564 55.81326237 31.29637574 76.69140625 50.83984375 C78.77166136 52.78634303 80.89596313 54.65093586 83.0625 56.5 C90.61967651 63.08155741 97.5885758 70.30382027 104 78 C104.68618408 78.82346924 104.68618408 78.82346924 105.38623047 79.66357422 C135.20415635 115.57869669 156.93017052 154.96383544 170.75 199.5625 C171.00273682 200.37146729 171.25547363 201.18043457 171.51586914 202.01391602 C172.61377864 205.76282544 173.16535129 208.27036023 172 212 C170.13433202 209.20149803 169.42168329 207.40064066 168.5625 204.21875 C168.30726563 203.29449219 168.05203125 202.37023437 167.7890625 201.41796875 C167.26302083 199.47265625 166.73697917 197.52734375 166.2109375 195.58203125 C165.95570313 194.65777344 165.70046875 193.73351562 165.4375 192.78125 C165.20933594 191.93626953 164.98117187 191.09128906 164.74609375 190.22070312 C164.02520001 187.7552369 164.02520001 187.7552369 162 185 C160.1309408 180.42166232 158.51541691 176.00735856 159 171 C158.01 170.67 157.02 170.34 156 170 C155.12109375 168.07421875 155.12109375 168.07421875 154.4375 165.6875 C153.53090913 162.5887007 152.47578569 159.86866206 151 157 C150.2740596 155.29907395 149.56624754 153.59031797 148.875 151.875 C148.34519531 150.57175781 148.34519531 150.57175781 147.8046875 149.2421875 C147 147 147 147 147 145 C146.34 145 145.68 145 145 145 C144.608125 144.030625 144.21625 143.06125 143.8125 142.0625 C141.30103751 136.21829108 138.62784974 130.43661628 134 126 C132.41086442 123.32356113 132 122.1819944 132 119 C131.360625 118.773125 130.72125 118.54625 130.0625 118.3125 C129.381875 117.879375 128.70125 117.44625 128 117 C127.87367188 116.26652344 127.74734375 115.53304687 127.6171875 114.77734375 C126.83024803 111.23611612 125.22650108 109.14576997 123.0625 106.25 C122.35222656 105.28578125 121.64195312 104.3215625 120.91015625 103.328125 C119.21253281 100.93634711 119.21253281 100.93634711 117 100 C116.01330725 98.25684281 115.02861936 96.51245575 114.0625 94.7578125 C112.68171265 92.47342167 110.91318961 90.85691933 109 89 C107.48376831 86.9920175 106.0141109 84.95747765 104.5625 82.90234375 C102.89846034 80.87637547 101.10600908 79.54323421 99 78 C98.33333333 76.66666667 97.66666667 75.33333333 97 74 C94.69082732 71.50852421 92.43240009 69.3155352 89.6875 67.3125 C88.8521875 66.6628125 88.8521875 66.6628125 88 66 C88 65.34 88 64.68 88 64 C87.39929688 63.73960937 86.79859375 63.47921875 86.1796875 63.2109375 C83.84715218 61.91508454 82.74407966 60.71974148 81.125 58.625 C78.42931172 55.33856895 75.59539877 53.29493539 72 51 C70.31126121 49.35570171 68.64694485 47.68615782 67 46 C58.13277093 37.84138319 48.37204496 31.07197787 38.375 24.375 C37.79050079 23.98281281 37.20600159 23.59062561 36.60379028 23.18655396 C24.83738349 15.32034382 12.66379655 8.33189827 0 2 C0 1.34 0 0.68 0 0 Z " fill="#16BBC6" transform="translate(656,216)"/>
<path d="M0 0 C3.41636738 1.48739804 5.73734308 3.45010477 8.4375 6 C24.60212155 21.49425558 24.60212155 21.49425558 44 31 C44 31.66 44 32.32 44 33 C46.10099766 34.52358095 46.10099766 34.52358095 48.828125 36.046875 C49.85679687 36.645 50.88546875 37.243125 51.9453125 37.859375 C53.03585937 38.48328125 54.12640625 39.1071875 55.25 39.75 C56.29414063 40.3584375 57.33828125 40.966875 58.4140625 41.59375 C70.52690921 49.49887011 70.52690921 49.49887011 84 53 C85 54 86 55 87 56 C89.19728829 56.97140391 91.43166868 57.86110635 93.6875 58.6875 C94.86699219 59.12449219 96.04648437 59.56148437 97.26171875 60.01171875 C98.16535156 60.33785156 99.06898438 60.66398438 100 61 C100 61.66 100 62.32 100 63 C101.22847656 63.24234375 102.45695312 63.4846875 103.72265625 63.734375 C109.79700103 65.08449258 115.57200287 67.19741633 121.4375 69.25 C138.633234 75.11712767 156.23884212 79.7430681 174.33984375 81.67578125 C177 82 177 82 180 83 C195.42364578 85.05322434 211.09183617 85.19502221 226.625 85.1875 C227.42395691 85.18831573 228.22291382 85.18913147 229.04608154 85.18997192 C237.09633654 85.1890403 245.00583449 85.0547276 253 84 C256.01249471 83.89669085 258.98399586 83.95212692 262 84 C259.56094756 86.43905244 258.65308005 86.34736865 255.28515625 86.6328125 C254.30289063 86.71692383 253.320625 86.80103516 252.30859375 86.88769531 C251.23738281 86.96600586 250.16617188 87.04431641 249.0625 87.125 C247.94875 87.2084668 246.835 87.29193359 245.6875 87.37792969 C207.3431088 90.00205702 170.10939307 85.68013469 133 76 C132.24380371 75.80857422 131.48760742 75.61714844 130.70849609 75.41992188 C84.76056317 63.68116173 39.50212297 38.44019135 5.06640625 5.890625 C2.94504451 3.85329202 2.94504451 3.85329202 0 2 C0 1.34 0 0.68 0 0 Z " fill="#1D93C4" transform="translate(292,747)"/>
<path d="M0 0 C0.33 0 0.66 0 1 0 C1 65.01 1 130.02 1 197 C-2.22048358 193.77951642 -2.3478728 193.05454389 -2.38724393 188.74455673 C-2.3785054 188.02957887 -2.36976688 187.31460101 -2.36076355 186.57795715 C-2.36332682 185.81585314 -2.3658901 185.05374913 -2.36853105 184.26855105 C-2.37348427 181.70722253 -2.35695103 179.14647957 -2.34057617 176.58520508 C-2.33973023 174.7522737 -2.3402044 172.91934131 -2.34190369 171.08641052 C-2.34276635 166.10318744 -2.32509673 161.12017988 -2.30418181 156.137007 C-2.28546016 150.93198116 -2.28366814 145.72695068 -2.28010559 140.52189636 C-2.27077184 130.66214319 -2.24614007 120.80248951 -2.21605712 110.9427802 C-2.18255447 99.71923805 -2.16603751 88.49569122 -2.15097082 77.27211154 C-2.11959168 54.18135248 -2.06680536 31.09068181 -2 8 C-1.34 8 -0.68 8 0 8 C0 5.36 0 2.72 0 0 Z " fill="#26F0EC" transform="translate(708,472)"/>
<path d="M0 0 C0.66 0 1.32 0 2 0 C2.13048665 23.02612151 2.26087681 46.05224357 2.39115143 69.07836628 C2.45163957 79.76928546 2.51215955 90.46020446 2.57275391 101.15112305 C2.62555495 110.46704882 2.67829683 119.78297493 2.73096704 129.09890145 C2.75886909 134.03364504 2.78680118 138.96838846 2.81480408 143.90313148 C2.84114197 148.54462773 2.86740096 153.18612442 2.89359856 157.82762146 C2.90324413 159.53405969 2.9129189 161.24049776 2.92262459 162.94693565 C2.93583979 165.27116732 2.94895128 167.59539955 2.96203613 169.91963196 C2.96941048 171.22212544 2.97678482 172.52461893 2.98438263 173.86658192 C2.99457246 175.91103585 3 177.95552068 3 180 C0.0236328 175.85679189 -0.38190039 172.90255679 -0.40545654 167.84443665 C-0.41280894 167.13512109 -0.42016133 166.42580554 -0.42773652 165.69499558 C-0.4486877 163.32428116 -0.44844241 160.95405184 -0.44824219 158.58325195 C-0.45889795 156.88133929 -0.47084747 155.17943431 -0.48399353 153.47753906 C-0.51585686 148.8600732 -0.52923706 144.24271905 -0.53904247 139.62516046 C-0.55214456 134.79604933 -0.58128247 129.96703389 -0.60845947 125.13798523 C-0.65175747 117.03170701 -0.68387678 108.92544726 -0.70849609 100.8190918 C-0.74018745 90.40410059 -0.79039424 79.98928436 -0.84641647 69.57439899 C-0.89437576 60.62921126 -0.93373862 51.68398869 -0.97177219 42.73875403 C-0.98439665 39.85834083 -0.99823003 36.97793527 -1.01222992 34.09752846 C-1.03365419 29.57909296 -1.04972687 25.06066859 -1.06158638 20.54219818 C-1.06670947 18.88048113 -1.07355248 17.21876839 -1.08220482 15.55706596 C-1.09365538 13.29623251 -1.09890874 11.03547003 -1.10247803 8.77461243 C-1.10687771 7.50718862 -1.11127739 6.2397648 -1.11581039 4.93393421 C-1 2 -1 2 0 0 Z " fill="#10B6CE" transform="translate(639,424)"/>
<path d="M0 0 C2.07720604 3.11580906 2.54347132 4.93795163 3.21875 8.56640625 C3.53247559 10.24138184 3.53247559 10.24138184 3.85253906 11.95019531 C4.06620117 13.14225586 4.27986328 14.33431641 4.5 15.5625 C4.72139648 16.78163086 4.94279297 18.00076172 5.17089844 19.25683594 C6.86903081 28.81734643 8.17482848 38.32822214 9 48 C9.11085938 49.11375 9.22171875 50.2275 9.3359375 51.375 C12.1207099 83.88909933 9.52946459 117.07497887 3 149 C2.01 148.34 1.02 147.68 0 147 C0 146.01 0 145.02 0 144 C0.66 144 1.32 144 2 144 C1.98839844 143.37351562 1.97679687 142.74703125 1.96484375 142.1015625 C1.95582031 141.28429687 1.94679688 140.46703125 1.9375 139.625 C1.92589844 138.81289063 1.91429687 138.00078125 1.90234375 137.1640625 C2 135 2 135 3 133 C3.39771924 130.43659789 3.74919675 127.88622816 4.0625 125.3125 C4.19881836 124.26932617 4.19881836 124.26932617 4.33789062 123.20507812 C4.75634755 119.8353987 4.9996232 116.63638515 4.99609375 113.23046875 C5 110 5 110 5.48046875 108.0925293 C6.05286194 105.78708662 6.2092597 103.66135779 6.31640625 101.2890625 C6.35846191 100.380354 6.40051758 99.47164551 6.44384766 98.53540039 C6.48300293 97.57496826 6.5221582 96.61453613 6.5625 95.625 C6.6251001 94.14858032 6.6251001 94.14858032 6.68896484 92.64233398 C7.29063868 77.78453765 7.29063868 77.78453765 6 63 C5.97798425 61.2084686 5.98023109 59.4165576 6 57.625 C6.04031096 52.65331468 5.63414398 47.92352236 5 43 C4.7716001 40.97269819 4.54327074 38.94538826 4.31591797 36.91796875 C3.16646039 26.80097022 1.98864658 16.76291216 -1 7 C-1.75 4.1875 -1.75 4.1875 -2 2 C-1.34 1.34 -0.68 0.68 0 0 Z " fill="#1DC7CB" transform="translate(829,429)"/>
<path d="M0 0 C0 3 0 3 -2.39916992 5.73974609 C-3.50193506 6.84203475 -4.61299619 7.93606162 -5.73046875 9.0234375 C-6.61162102 9.8982225 -6.61162102 9.8982225 -7.51057434 10.79067993 C-9.39597077 12.65926407 -11.29148914 14.51719289 -13.1875 16.375 C-14.44664844 17.61909886 -15.70512035 18.86388284 -16.96289062 20.109375 C-19.28903403 22.41102945 -21.61909529 24.70855462 -23.95385742 27.00146484 C-26.65136705 29.65232482 -29.32957856 32.32182489 -32 35 C-35.66666667 38.66666667 -39.33333333 42.33333333 -43 46 C-44.11761719 47.11955078 -44.11761719 47.11955078 -45.2578125 48.26171875 C-47.63326497 50.63378739 -50.01499773 52.99924735 -52.3984375 55.36328125 C-54.05735698 57.01295516 -55.71620932 58.66269658 -57.375 60.3125 C-58.2 61.12912109 -59.025 61.94574219 -59.875 62.78710938 C-63.5284824 66.42609382 -67.12076892 70.06679939 -70.48046875 73.98046875 C-74.71112241 78.90615836 -79.32585038 83.43394083 -83.9375 88 C-84.81212891 88.87011719 -85.68675781 89.74023438 -86.58789062 90.63671875 C-88.72297449 92.76013549 -90.86037205 94.88116378 -93 97 C-93 92.54692898 -90.10312562 90.53060092 -87.16552734 87.48413086 C-86.54026846 86.82571418 -85.91500957 86.1672975 -85.27080345 85.48892879 C-77.10566661 76.93876402 -68.72417354 68.59987986 -60.3515625 60.25390625 C-58.60015184 58.50436599 -56.84896577 56.75460087 -55.09799194 55.00462341 C-50.53998577 50.45039354 -45.97898242 45.89917737 -41.41729736 41.34863281 C-36.742491 36.68414701 -32.07059574 32.01674739 -27.3984375 27.34960938 C-18.26843411 18.23025685 -9.13535311 9.11399326 0 0 Z " fill="#25A5D8" transform="translate(412,542)"/>
<path d="M0 0 C6.68336294 -0.34569119 12.48197278 0.59351523 18.984375 2.1484375 C39.7915646 6.82615242 61.39174173 7.18907548 82.625 7.1875 C83.82479492 7.18885956 83.82479492 7.18885956 85.04882812 7.19024658 C93.09810917 7.18921144 101.00681839 7.05459778 109 6 C112.01249471 5.89669085 114.98399586 5.95212692 118 6 C115.56094756 8.43905244 114.65308005 8.34736865 111.28515625 8.6328125 C110.30289063 8.71692383 109.320625 8.80103516 108.30859375 8.88769531 C107.23738281 8.96600586 106.16617188 9.04431641 105.0625 9.125 C103.391875 9.2502002 103.391875 9.2502002 101.6875 9.37792969 C67.47646184 11.71918789 33.37489084 8.88101179 0 1 C0 0.67 0 0.34 0 0 Z " fill="#1EA3C2" transform="translate(436,825)"/>
<path d="M0 0 C3.5747899 1.5180728 5.85811724 3.61574711 8.58496094 6.35791016 C9.48559265 7.25869293 10.38622437 8.15947571 11.31414795 9.08755493 C12.28766481 10.07128408 13.26107125 11.0551225 14.234375 12.0390625 C15.23713161 13.04555128 16.24033222 14.05159789 17.24395752 15.05722046 C19.87873813 17.69962147 22.50745611 20.34797428 25.13494873 22.99761963 C27.81939688 25.70256052 30.50954622 28.40181821 33.19921875 31.1015625 C38.47173618 36.39550174 43.73786057 41.69574283 49 47 C52.93797182 45.52298123 55.29559737 44.06405061 58.25 41.04296875 C59.0234375 40.25986328 59.796875 39.47675781 60.59375 38.66992188 C61.3878125 37.85072266 62.181875 37.03152344 63 36.1875 C63.7940625 35.37990234 64.588125 34.57230469 65.40625 33.74023438 C66.94086463 32.17876399 68.47263679 30.61449371 70.0012207 29.04711914 C72.31441029 26.6779858 74.65263394 24.33524541 77 22 C77.88300781 21.11699219 78.76601563 20.23398437 79.67578125 19.32421875 C82.1171875 16.8828125 84.55859375 14.44140625 87 12 C87.99 12.33 88.98 12.66 90 13 C85.71657179 17.30828518 81.42976426 21.61316975 77.13989258 25.91503906 C75.68324641 27.37669088 74.22750192 28.83924189 72.77270508 30.30273438 C70.67249443 32.41517646 68.56898238 34.52428377 66.46484375 36.6328125 C65.82288559 37.27993195 65.18092743 37.92705139 64.51951599 38.59378052 C62.6977786 40.4157398 60.85724968 42.21429239 59 44 C58.37940704 44.60293884 57.75881409 45.20587769 57.11941528 45.8270874 C56.51354584 46.3867218 55.90767639 46.9463562 55.28344727 47.52294922 C54.74752457 48.02494843 54.21160187 48.52694763 53.65943909 49.04415894 C52 50 52 50 50.09855652 49.93630981 C47.1736719 48.63131843 45.39896842 46.76517473 43.13964844 44.49609375 C42.67089294 44.02938263 42.20213745 43.56267151 41.71917725 43.08181763 C40.17522244 41.54086552 38.64226377 39.98945439 37.109375 38.4375 C36.03950362 37.36457081 34.96904032 36.29223155 33.89801025 35.22045898 C31.65754449 32.97539383 29.42207676 30.72551053 27.19042969 28.47167969 C24.32317485 25.57607456 21.44724969 22.68928102 18.56801987 19.80558777 C16.35942728 17.59284908 14.15368083 15.37729307 11.94898224 13.16067505 C10.88884959 12.0948284 9.82823602 11.02945989 8.76714325 9.96456909 C7.28969791 8.48028666 5.81570043 6.99267082 4.34277344 5.50390625 C3.50212341 4.65642822 2.66147339 3.8089502 1.79534912 2.93579102 C0 1 0 1 0 0 Z " fill="#1DC7DD" transform="translate(494,470)"/>
<path d="M0 0 C0 0.66 0 1.32 0 2 C-1.65385233 3.34919532 -3.321702 4.68133728 -5 6 C-5.66 6.99 -6.32 7.98 -7 9 C-7.66 9 -8.32 9 -9 9 C-9 9.66 -9 10.32 -9 11 C-10.66666667 12.33333333 -12.33333333 13.66666667 -14 15 C-15.18912413 16.44623206 -16.37724243 17.89342804 -17.546875 19.35546875 C-19.8481993 21.95992447 -22.49180454 24.14028502 -25.13671875 26.38671875 C-27.14214436 28.07706634 -27.14214436 28.07706634 -29.375 30.4375 C-31 32 -31 32 -33 32 C-33 32.99 -33 33.98 -33 35 C-34.62053812 36.38903267 -36.29705213 37.71332828 -38 39 C-40.38754018 41.32301207 -42.71085168 43.70024585 -45.0234375 46.09765625 C-45.73757813 46.82855469 -46.45171875 47.55945313 -47.1875 48.3125 C-47.86167969 49.00988281 -48.53585937 49.70726562 -49.23046875 50.42578125 C-51 52 -51 52 -53 52 C-53.2475 52.804375 -53.495 53.60875 -53.75 54.4375 C-55 57 -55 57 -57.125 57.8125 C-57.74375 57.874375 -58.3625 57.93625 -59 58 C-56.38573393 52.87330625 -52.4956164 49.24162708 -48.4453125 45.25 C-47.70675018 44.51426758 -46.96818787 43.77853516 -46.20724487 43.02050781 C-43.85116361 40.67558781 -41.48822885 38.33771426 -39.125 36 C-37.54250829 34.4275466 -35.96047203 32.8546347 -34.37890625 31.28125 C-31.46912289 28.38777085 -28.55675438 25.4969512 -25.64111328 22.609375 C-21.58069659 18.58639063 -17.52592418 14.56055413 -13.5546875 10.44921875 C-12.32824207 9.19519799 -11.10167761 7.94129364 -9.875 6.6875 C-9.25496094 6.04232422 -8.63492188 5.39714844 -7.99609375 4.73242188 C-7.39667969 4.12333984 -6.79726563 3.51425781 -6.1796875 2.88671875 C-5.64069824 2.33201904 -5.10170898 1.77731934 -4.54638672 1.20581055 C-3 0 -3 0 0 0 Z " fill="#B7EEEE" transform="translate(613,344)"/>
<path d="M0 0 C0.33 0 0.66 0 1 0 C3.32721282 10.54639032 3.35482772 20.94931194 3.3125 31.6875 C3.31076279 33.04619705 3.31076279 33.04619705 3.30899048 34.43234253 C3.27182704 49.14468071 2.48615664 63.47239117 0 78 C-0.14405273 78.84949219 -0.28810547 79.69898438 -0.43652344 80.57421875 C-1.21402783 85.06646638 -2.06237084 89.53794918 -3 94 C-3.99 93.34 -4.98 92.68 -6 92 C-6 91.01 -6 90.02 -6 89 C-5.34 89 -4.68 89 -4 89 C-4.01160156 88.37351562 -4.02320313 87.74703125 -4.03515625 87.1015625 C-4.04417969 86.28429687 -4.05320312 85.46703125 -4.0625 84.625 C-4.07410156 83.81289063 -4.08570313 83.00078125 -4.09765625 82.1640625 C-4 80 -4 80 -3 78 C-2.60228076 75.43659789 -2.25080325 72.88622816 -1.9375 70.3125 C-1.80118164 69.26932617 -1.80118164 69.26932617 -1.66210938 68.20507812 C-1.24365245 64.8353987 -1.0003768 61.63638515 -1.00390625 58.23046875 C-1 55 -1 55 -0.51953125 53.0925293 C0.05286194 50.78708662 0.2092597 48.66135779 0.31640625 46.2890625 C0.35846191 45.380354 0.40051758 44.47164551 0.44384766 43.53540039 C0.50258057 42.0947522 0.50258057 42.0947522 0.5625 40.625 C0.6042334 39.64072021 0.6459668 38.65644043 0.68896484 37.64233398 C1.33260483 22.78106646 1.33260483 22.78106646 0 8 C-0.08101432 5.32652754 -0.04694018 2.67559 0 0 Z " fill="#13C2C8" transform="translate(835,484)"/>
<path d="M0 0 C0.33 0 0.66 0 1 0 C1 25.41 1 50.82 1 77 C-2 74 -2 74 -2.32952881 71.00868225 C-2.30811829 69.78386642 -2.28670776 68.5590506 -2.26464844 67.29711914 C-2.25693924 66.62035629 -2.24923004 65.94359344 -2.24128723 65.24632263 C-2.21200955 63.0087733 -2.16096682 60.77229354 -2.109375 58.53515625 C-2.08386994 56.97962827 -2.05957436 55.42408003 -2.03643799 53.86851501 C-1.98486001 50.60749525 -1.92336147 47.34687103 -1.85400391 44.08618164 C-1.76526716 39.908846 -1.69374038 35.7314545 -1.62871933 31.553689 C-1.56588494 27.56823263 -1.49409145 23.58295166 -1.421875 19.59765625 C-1.40244465 18.45781123 -1.40244465 18.45781123 -1.38262177 17.29493904 C-1.34434249 15.14058432 -1.29965869 12.98646139 -1.25292969 10.83227539 C-1.22833679 9.60666397 -1.2037439 8.38105255 -1.17840576 7.11830139 C-1.03232853 4.56506072 -0.74804787 2.43016547 0 0 Z " fill="#1CEFEA" transform="translate(708,592)"/>
<path d="M0 0 C21.12 0 42.24 0 64 0 C64 0.33 64 0.66 64 1 C65.16571533 1.16604736 65.16571533 1.16604736 66.35498047 1.33544922 C69.86295294 1.84003858 73.36893205 2.35735018 76.875 2.875 C78.09832031 3.04902344 79.32164062 3.22304687 80.58203125 3.40234375 C81.74863281 3.57636719 82.91523437 3.75039062 84.1171875 3.9296875 C85.19597168 4.08679199 86.27475586 4.24389648 87.38623047 4.40576172 C90 5 90 5 92 7 C83.90811178 6.42951437 75.82797832 5.73978937 67.75 5 C66.33811401 4.8755249 66.33811401 4.8755249 64.89770508 4.74853516 C63.57935669 4.62551025 63.57935669 4.62551025 62.234375 4.5 C61.04666504 4.39171875 61.04666504 4.39171875 59.83496094 4.28125 C58 4 58 4 57 3 C44.99144165 1.499239 32.70748377 1.68271277 20.625 1.4375 C18.61718064 1.39419727 16.60936804 1.35057975 14.6015625 1.30664062 C9.73444526 1.20080251 4.86725671 1.09920808 0 1 C0 0.67 0 0.34 0 0 Z " fill="#2AA0C5" transform="translate(487,184)"/>
<path d="M0 0 C0.66 0.33 1.32 0.66 2 1 C-5.95015907 7.58006363 -5.95015907 7.58006363 -10.4375 9.375 C-15.84525278 11.84169425 -19.74298133 15.91428993 -24 20 C-24.66 19.67 -25.32 19.34 -26 19 C-23.18133026 14.22622355 -20.15141838 11.25152957 -15.5 8.1875 C-14.93152344 7.79369141 -14.36304688 7.39988281 -13.77734375 6.99414062 C-10.89013905 5.04142562 -8.4213576 3.66146247 -5 3 C-3.700625 2.195625 -3.700625 2.195625 -2.375 1.375 C-1.59125 0.92125 -0.8075 0.4675 0 0 Z M-28 20 C-27.34 20.33 -26.68 20.66 -26 21 C-29.96 24.465 -29.96 24.465 -34 28 C-34.66 27.67 -35.32 27.34 -36 27 C-33.36 24.69 -30.72 22.38 -28 20 Z " fill="#2895D4" transform="translate(336,236)"/>
<path d="M0 0 C0.33 0 0.66 0 1 0 C1 15.84 1 31.68 1 48 C0.01 48.495 0.01 48.495 -1 49 C-1.33 35.47 -1.66 21.94 -2 8 C-1.34 8 -0.68 8 0 8 C0 5.36 0 2.72 0 0 Z " fill="#41F2EF" transform="translate(708,472)"/>
<path d="M0 0 C0.99 0.33 1.98 0.66 3 1 C2.12674072 1.85754883 1.25348145 2.71509766 0.35375977 3.59863281 C-2.88348601 6.78158711 -6.11080026 9.97445263 -9.33520508 13.17041016 C-10.73225226 14.55236904 -12.1319799 15.93162365 -13.53442383 17.30810547 C-15.54959198 19.28689359 -17.55492666 21.27520039 -19.55859375 23.265625 C-20.18777206 23.87931946 -20.81695038 24.49301392 -21.4651947 25.12530518 C-22.04572098 25.70560486 -22.62624725 26.28590454 -23.22436523 26.88378906 C-23.73732651 27.3900885 -24.25028778 27.89638794 -24.77879333 28.41802979 C-26.18895498 30.24477524 -26.59261348 31.74769454 -27 34 C-27.66 32.68 -28.32 31.36 -29 30 C-24.96209617 25.14189696 -20.780961 20.80587141 -15.97265625 16.7109375 C-10.12176823 11.63630591 -5.02332544 5.87835955 0 0 Z " fill="#44DFE9" transform="translate(519,435)"/>
<path d="M0 0 C0 3 0 3 -2.47851562 5.8190918 C-3.61342476 6.9535252 -4.75660841 8.07971791 -5.90625 9.19921875 C-6.50554321 9.79426712 -7.10483643 10.38931549 -7.72229004 11.00239563 C-9.64128092 12.90457052 -11.57043112 14.79606205 -13.5 16.6875 C-14.80146301 17.97392 -16.10225318 19.2610211 -17.40234375 20.54882812 C-20.59380369 23.70718002 -23.79441498 26.85598797 -27 30 C-27 27 -27 27 -25.33520508 24.99462891 C-24.57103271 24.24616699 -23.80686035 23.49770508 -23.01953125 22.7265625 C-22.18486328 21.9015625 -21.35019531 21.0765625 -20.49023438 20.2265625 C-19.60658203 19.36804688 -18.72292969 18.50953125 -17.8125 17.625 C-16.94818359 16.77421875 -16.08386719 15.9234375 -15.19335938 15.046875 C-13.52742218 13.40774599 -11.8586719 11.77146987 -10.18676758 10.13842773 C-7.77217891 7.77721503 -5.38102546 5.39497678 -3 3 C-2 2 -1 1 0 0 Z " fill="#015BC5" transform="translate(349,447)"/>
<path d="M0 0 C0 3 0 3 -2.08203125 5.2265625 C-2.98308594 6.01804687 -3.88414062 6.80953125 -4.8125 7.625 C-5.70582031 8.42164063 -6.59914063 9.21828125 -7.51953125 10.0390625 C-10 12 -10 12 -13 13 C-13.309375 13.825 -13.61875 14.65 -13.9375 15.5 C-14.288125 16.325 -14.63875 17.15 -15 18 C-17.125 18.8125 -17.125 18.8125 -19 19 C-16.53275508 14.31223465 -13.23006312 10.93043922 -9.5 7.25 C-8.91863281 6.66089844 -8.33726562 6.07179688 -7.73828125 5.46484375 C-7.17496094 4.90410156 -6.61164062 4.34335937 -6.03125 3.765625 C-5.52142578 3.25805664 -5.01160156 2.75048828 -4.48632812 2.22753906 C-3 1 -3 1 0 0 Z " fill="#98E8EC" transform="translate(573,383)"/>
<path d="M0 0 C-9.50330956 3.59584686 -18.9230944 4.31655201 -29 4 C-29 3.67 -29 3.34 -29 3 C-24.91880031 2.29940894 -20.8347923 1.6168041 -16.75 0.9375 C-15.59113281 0.73833984 -14.43226563 0.53917969 -13.23828125 0.33398438 C-12.12324219 0.15029297 -11.00820313 -0.03339844 -9.859375 -0.22265625 C-8.83295898 -0.39547119 -7.80654297 -0.56828613 -6.74902344 -0.74633789 C-4.14929692 -0.98622385 -2.45153733 -0.82316264 0 0 Z " fill="#18A9C2" transform="translate(584,827)"/>
<path d="M0 0 C0 0.66 0 1.32 0 2 C-1.65385233 3.34919532 -3.321702 4.68133728 -5 6 C-5.99 7.485 -5.99 7.485 -7 9 C-7.66 9 -8.32 9 -9 9 C-9 9.66 -9 10.32 -9 11 C-13.47058824 15 -13.47058824 15 -16 15 C-14.38669686 10.99060757 -11.57540302 8.24326219 -8.5625 5.25 C-8.07201172 4.74339844 -7.58152344 4.23679687 -7.07617188 3.71484375 C-3.36633465 0 -3.36633465 0 0 0 Z " fill="#C5F0F0" transform="translate(613,344)"/>
<path d="M0 0 C0.66 0 1.32 0 2 0 C3.43027825 4.63266226 2.39403523 8.3094116 1.0625 12.8125 C0.86720703 13.50537109 0.67191406 14.19824219 0.47070312 14.91210938 C-0.00964446 16.61089961 -0.50348021 18.30586595 -1 20 C-2.578125 18.234375 -2.578125 18.234375 -4 16 C-2.75 12.25 -2.75 12.25 -1.83984375 10.171875 C-0.54345584 6.81935556 -0.31854196 3.56766995 0 0 Z " fill="#19C4C8" transform="translate(828,578)"/>
<path d="M0 0 C1.485 0.99 1.485 0.99 3 2 C3.36328125 4.2421875 3.36328125 4.2421875 3.3125 6.875 C3.30863281 7.73867188 3.30476562 8.60234375 3.30078125 9.4921875 C2.84964655 13.25359633 1.66083567 15.33916433 -1 18 C-1.09945415 11.88909517 -1.0712828 6.02596573 0 0 Z " fill="#358CD2" transform="translate(189,526)"/>
<path d="M0 0 C0.33 0.66 0.66 1.32 1 2 C0.3503125 3.051875 0.3503125 3.051875 -0.3125 4.125 C-2.09803155 7.16701672 -2.76270385 9.72979272 -3.52734375 13.12890625 C-4.06775597 15.26822404 -4.88924082 17.0958414 -6 19 C-8.05994705 12.82015884 -5.55779141 6.70584238 -3 1 C-2.01 0.67 -1.02 0.34 0 0 Z " fill="#318AD4" transform="translate(214,381)"/>
<path d="M0 0 C-2.81448461 6.45166472 -8.75450362 11.87725181 -15 15 C-13.387672 10.96918 -10.53765404 8.24055863 -7.5 5.25 C-7.00113281 4.74339844 -6.50226562 4.23679687 -5.98828125 3.71484375 C-2.25341139 0 -2.25341139 0 0 0 Z " fill="#84E7EB" transform="translate(554,402)"/>
<path d="M0 0 C0.33 0 0.66 0 1 0 C1.05407567 2.58361518 1.093707 5.16609255 1.125 7.75 C1.14175781 8.47960937 1.15851562 9.20921875 1.17578125 9.9609375 C1.21372922 14.13521398 0.91514727 16.16970546 -1 20 C-1.33 16.37 -1.66 12.74 -2 9 C-1.34 8.67 -0.68 8.34 0 8 C0 5.36 0 2.72 0 0 Z " fill="#56F2F0" transform="translate(708,472)"/>
<path d="M0 0 C0 3 0 3 -1.96875 5.26171875 C-2.8040625 6.06222656 -3.639375 6.86273438 -4.5 7.6875 C-5.3353125 8.49574219 -6.170625 9.30398438 -7.03125 10.13671875 C-7.6809375 10.75160156 -8.330625 11.36648438 -9 12 C-9.66 11.67 -10.32 11.34 -11 11 C-7.6189962 6.86378916 -4.33409466 3.18683431 0 0 Z " fill="#0DADC9" transform="translate(633,431)"/>
<path d="M0 0 C0.99 0.33 1.98 0.66 3 1 C0.19195732 3.96404505 -2.18315774 6.44499019 -6 8 C-6 7.01 -6 6.02 -6 5 C-5.01 5 -4.02 5 -3 5 C-2.87625 4.360625 -2.7525 3.72125 -2.625 3.0625 C-2.41875 2.381875 -2.2125 1.70125 -2 1 C-1.34 0.67 -0.68 0.34 0 0 Z " fill="#9CEDF0" transform="translate(639,422)"/>
<path d="M0 0 C0.66 0.66 1.32 1.32 2 2 C0.02 3.98 -1.96 5.96 -4 8 C-4.99 7.67 -5.98 7.34 -7 7 C-4.69 4.69 -2.38 2.38 0 0 Z " fill="#16B6D1" transform="translate(591,472)"/>
<path d="M0 0 C0.66 0.33 1.32 0.66 2 1 C1.34 3.97 0.68 6.94 0 10 C-2 6 -2 6 -1.125 2.75 C-0.75375 1.8425 -0.3825 0.935 0 0 Z " fill="#18C0C6" transform="translate(824,598)"/>
<path d="M0 0 C0.66 0 1.32 0 2 0 C0.25 7.75 0.25 7.75 -2 10 C-1.54177532 6.53058454 -1.10868317 3.32604951 0 0 Z " fill="#287EC7" transform="translate(206,395)"/>
<path d="M0 0 C0.66 0.66 1.32 1.32 2 2 C0.71034824 3.37562854 -0.62689293 4.70766393 -2 6 C-2.66 6 -3.32 6 -4 6 C-2.84826645 3.53199953 -1.95216435 1.95216435 0 0 Z " fill="#62E0E9" transform="translate(527,427)"/>
<path d="M0 0 C0.66 0.33 1.32 0.66 2 1 C1.04882866 2.1725131 0.08882991 3.33787015 -0.875 4.5 C-1.40867187 5.1496875 -1.94234375 5.799375 -2.4921875 6.46875 C-2.98976563 6.9740625 -3.48734375 7.479375 -4 8 C-4.66 8 -5.32 8 -6 8 C-4.55746343 4.63408134 -2.66735273 2.48952921 0 0 Z " fill="#E6FAF5" transform="translate(628,326)"/>
<path d="M0 0 C1.98 0 3.96 0 6 0 C4.02 0.99 4.02 0.99 2 2 C1.34 1.34 0.68 0.68 0 0 Z " fill="#28A7C5" transform="translate(465,184)"/>
<path d="M0 0 C0.66 0.33 1.32 0.66 2 1 C1.67 1.66 1.34 2.32 1 3 C0.34 2.34 -0.32 1.68 -1 1 C-0.67 0.67 -0.34 0.34 0 0 Z " fill="#2A9ABD" transform="translate(353,794)"/>
<path d="M0 0 C0.33 0 0.66 0 1 0 C1 1.65 1 3.3 1 5 C0.67 5 0.34 5 0 5 C0 3.35 0 1.7 0 0 Z " fill="#22C8C8" transform="translate(839,527)"/>
<path d="M0 0 C1 4 1 4 1 4 Z " fill="#408EC4" transform="translate(193,581)"/>
<path d="M0 0 C1 4 1 4 1 4 Z " fill="#3E8CC3" transform="translate(186,539)"/>
<path d="M0 0 C4 1 4 1 4 1 Z " fill="#2AA9C6" transform="translate(472,184)"/>
<path d="M0 0 C0.66 0.66 1.32 1.32 2 2 C1.34 2 0.68 2 0 2 C0 1.34 0 0.68 0 0 Z " fill="#28A3BF" transform="translate(416,821)"/>
<path d="" fill="#408EC7" transform="translate(0,0)"/>
<path d="M0 0 C3 1 3 1 3 1 Z " fill="#1FB5C3" transform="translate(660,216)"/>
<path d="M0 0 C2 1 2 1 2 1 Z " fill="#25A3BE" transform="translate(441,828)"/>
<path d="M0 0 C2 1 2 1 2 1 Z " fill="#24B6C2" transform="translate(604,823)"/>
<path d="M0 0 C2 1 2 1 2 1 Z " fill="#25B9C3" transform="translate(628,815)"/>
<path d="" fill="#388EC0" transform="translate(0,0)"/>
<path d="" fill="#22C8C8" transform="translate(0,0)"/>
<path d="" fill="#3A8EC4" transform="translate(0,0)"/>
<path d="" fill="#3B8DC2" transform="translate(0,0)"/>
<path d="" fill="#3E8DC4" transform="translate(0,0)"/>
<path d="" fill="#3C8BC4" transform="translate(0,0)"/>
<path d="" fill="#3E8CC4" transform="translate(0,0)"/>
<path d="" fill="#3F8DC4" transform="translate(0,0)"/>
<path d="" fill="#25C9C9" transform="translate(0,0)"/>
<path d="" fill="#3F8FC5" transform="translate(0,0)"/>
<path d="" fill="#25CBCB" transform="translate(0,0)"/>
<path d="" fill="#408FC5" transform="translate(0,0)"/>
<path d="" fill="#418EC5" transform="translate(0,0)"/>
<path d="" fill="#21C4C6" transform="translate(0,0)"/>
<path d="M0 0 C2 1 2 1 2 1 Z " fill="#1EB6C4" transform="translate(675,224)"/>
<path d="M0 0 C2 1 2 1 2 1 Z " fill="#21B2C3" transform="translate(644,208)"/>
<path d="M0 0 C2 1 2 1 2 1 Z " fill="#2EA3C7" transform="translate(402,200)"/>
<path d="M0 0 C2 1 2 1 2 1 Z " fill="#24ADC5" transform="translate(563,185)"/>
<path d="M0 0 C2 1 2 1 2 1 Z " fill="#26AEC5" transform="translate(555,184)"/>
<path d="" fill="#1EACBD" transform="translate(0,0)"/>
<path d="" fill="#23A8BD" transform="translate(0,0)"/>
<path d="" fill="#26A7BC" transform="translate(0,0)"/>
<path d="" fill="#23A6BD" transform="translate(0,0)"/>
<path d="" fill="#20B0C1" transform="translate(0,0)"/>
<path d="" fill="#23A5BE" transform="translate(0,0)"/>
<path d="" fill="#26A5C2" transform="translate(0,0)"/>
<path d="" fill="#21B0BE" transform="translate(0,0)"/>
<path d="" fill="#20A4BE" transform="translate(0,0)"/>
<path d="" fill="#21B0C0" transform="translate(0,0)"/>
<path d="" fill="#29A1C1" transform="translate(0,0)"/>
<path d="" fill="#27A2C0" transform="translate(0,0)"/>
<path d="" fill="#27A0BF" transform="translate(0,0)"/>
<path d="" fill="#259DBF" transform="translate(0,0)"/>
<path d="" fill="#2AA0BF" transform="translate(0,0)"/>
<path d="" fill="#2A9CBB" transform="translate(0,0)"/>
<path d="" fill="#2A9ABB" transform="translate(0,0)"/>
<path d="" fill="#20BEC3" transform="translate(0,0)"/>
<path d="" fill="#2799BD" transform="translate(0,0)"/>
<path d="" fill="#2D9DBF" transform="translate(0,0)"/>
<path d="" fill="#2A97BF" transform="translate(0,0)"/>
<path d="" fill="#2D99C1" transform="translate(0,0)"/>
<path d="" fill="#2C9AC0" transform="translate(0,0)"/>
<path d="" fill="#2B98BE" transform="translate(0,0)"/>
<path d="" fill="#2D95BF" transform="translate(0,0)"/>
<path d="" fill="#2C97BE" transform="translate(0,0)"/>
<path d="" fill="#2F95C0" transform="translate(0,0)"/>
<path d="" fill="#3197C2" transform="translate(0,0)"/>
<path d="" fill="#3293C0" transform="translate(0,0)"/>
<path d="" fill="#318EBE" transform="translate(0,0)"/>
<path d="" fill="#3291C2" transform="translate(0,0)"/>
<path d="" fill="#3494C0" transform="translate(0,0)"/>
<path d="" fill="#3590C1" transform="translate(0,0)"/>
<path d="" fill="#3892C1" transform="translate(0,0)"/>
<path d="" fill="#3991C1" transform="translate(0,0)"/>
<path d="" fill="#3691C1" transform="translate(0,0)"/>
<path d="" fill="#3690BF" transform="translate(0,0)"/>
<path d="" fill="#368CBF" transform="translate(0,0)"/>
<path d="" fill="#1DC4C2" transform="translate(0,0)"/>
<path d="" fill="#3B8FC3" transform="translate(0,0)"/>
<path d="" fill="#398EC2" transform="translate(0,0)"/>
<path d="" fill="#3C90C2" transform="translate(0,0)"/>
<path d="" fill="#22C8C7" transform="translate(0,0)"/>
<path d="" fill="#398FC2" transform="translate(0,0)"/>
<path d="" fill="#398EC0" transform="translate(0,0)"/>
<path d="" fill="#388DC0" transform="translate(0,0)"/>
<path d="" fill="#20C6C6" transform="translate(0,0)"/>
<path d="" fill="#22C8C6" transform="translate(0,0)"/>
<path d="" fill="#3C8FC4" transform="translate(0,0)"/>
<path d="" fill="#3C8DC3" transform="translate(0,0)"/>
<path d="" fill="#408FC5" transform="translate(0,0)"/>
<path d="" fill="#20C5C2" transform="translate(0,0)"/>
<path d="" fill="#25CAC7" transform="translate(0,0)"/>
<path d="" fill="#3E8EC4" transform="translate(0,0)"/>
<path d="" fill="#20C7C7" transform="translate(0,0)"/>
<path d="" fill="#20CAC7" transform="translate(0,0)"/>
<path d="" fill="#388AC2" transform="translate(0,0)"/>
<path d="" fill="#3E8AC2" transform="translate(0,0)"/>
<path d="" fill="#24C9CA" transform="translate(0,0)"/>
<path d="" fill="#1FC8C9" transform="translate(0,0)"/>
<path d="" fill="#3D8AC3" transform="translate(0,0)"/>
<path d="" fill="#408FC4" transform="translate(0,0)"/>
<path d="" fill="#428DC7" transform="translate(0,0)"/>
<path d="" fill="#418FC5" transform="translate(0,0)"/>
<path d="" fill="#3E8EC6" transform="translate(0,0)"/>
<path d="" fill="#3F8FC5" transform="translate(0,0)"/>
<path d="" fill="#4190C6" transform="translate(0,0)"/>
<path d="" fill="#408EC6" transform="translate(0,0)"/>
<path d="" fill="#4192C7" transform="translate(0,0)"/>
<path d="" fill="#3E8EC3" transform="translate(0,0)"/>
<path d="" fill="#22C4C7" transform="translate(0,0)"/>
<path d="" fill="#3E8EC5" transform="translate(0,0)"/>
<path d="" fill="#408DC5" transform="translate(0,0)"/>
<path d="" fill="#1FC6C8" transform="translate(0,0)"/>
<path d="" fill="#1FC3C6" transform="translate(0,0)"/>
<path d="" fill="#3A92C8" transform="translate(0,0)"/>
<path d="" fill="#3794C5" transform="translate(0,0)"/>
<path d="" fill="#3794C4" transform="translate(0,0)"/>
<path d="" fill="#3798C6" transform="translate(0,0)"/>
<path d="" fill="#3495C6" transform="translate(0,0)"/>
<path d="" fill="#3696C5" transform="translate(0,0)"/>
<path d="" fill="#3696C7" transform="translate(0,0)"/>
<path d="" fill="#3495C5" transform="translate(0,0)"/>
<path d="" fill="#3395C1" transform="translate(0,0)"/>
<path d="" fill="#3499C6" transform="translate(0,0)"/>
<path d="" fill="#3399C7" transform="translate(0,0)"/>
<path d="" fill="#3697C2" transform="translate(0,0)"/>
<path d="" fill="#3499C6" transform="translate(0,0)"/>
<path d="" fill="#3399C2" transform="translate(0,0)"/>
<path d="" fill="#1BB9C5" transform="translate(0,0)"/>
<path d="" fill="#319AC4" transform="translate(0,0)"/>
<path d="" fill="#3398C3" transform="translate(0,0)"/>
<path d="" fill="#20B8C5" transform="translate(0,0)"/>
<path d="" fill="#21B8C7" transform="translate(0,0)"/>
<path d="" fill="#2D9CC4" transform="translate(0,0)"/>
<path d="" fill="#20B5C6" transform="translate(0,0)"/>
<path d="" fill="#2D9FC4" transform="translate(0,0)"/>
<path d="" fill="#2F9EC5" transform="translate(0,0)"/>
<path d="" fill="#21B1C4" transform="translate(0,0)"/>
<path d="" fill="#2A9FC4" transform="translate(0,0)"/>
<path d="" fill="#2CA1C3" transform="translate(0,0)"/>
<path d="" fill="#27AFC2" transform="translate(0,0)"/>
<path d="" fill="#24AFC5" transform="translate(0,0)"/>
<path d="" fill="#2AA3C4" transform="translate(0,0)"/>
<path d="" fill="#2CA9C4" transform="translate(0,0)"/>
<path d="" fill="#27AFC4" transform="translate(0,0)"/>
</svg>
